<svg width="39" height="39" viewBox="0 0 39 39" fill="none" xmlns="http://www.w3.org/2000/svg">
<path d="M7.28727 34.499C7.29446 35.5985 8.18776 36.4859 9.28723 36.4859H34.4859C35.5905 36.4859 36.4859 35.5905 36.4859 34.4859V9.28723C36.4859 8.18266 35.5905 7.28723 34.4859 7.28723H30.1549C29.6239 7.28723 29.1147 7.49838 28.7396 7.87414C28.3644 8.24989 28.1541 8.75941 28.1549 9.29039L28.1754 22.2534L8.50781 2.58579C7.72676 1.80474 6.46043 1.80474 5.67938 2.58579L2.58579 5.67938C1.80474 6.46043 1.80474 7.72676 2.58579 8.50781L22.261 28.183H9.25911C8.72641 28.183 8.21572 28.3956 7.84028 28.7735C7.46484 29.1514 7.25567 29.6634 7.25915 30.1961L7.28727 34.499Z" fill="white" stroke="white" stroke-width="4" stroke-linejoin="round"/>
</svg>
