<?xml version="1.0" encoding="utf-8"?>
<!-- Generator: Adobe Illustrator 26.3.1, SVG Export Plug-In . SVG Version: 6.00 Build 0)  -->
<svg version="1.1" id="Livello_1" xmlns="http://www.w3.org/2000/svg" xmlns:xlink="http://www.w3.org/1999/xlink" x="0px" y="0px"
	 viewBox="0 0 39 39" style="enable-background:new 0 0 39 39;" xml:space="preserve">
<g>
	<path d="M35.9,35.9c-0.9,0.9-2.2,1-3.5,1H9.5c-4.7-0.4-5.2-7.4-0.6-8.1c3-0.5,7.5,0.5,10.5-0.2c2-0.5,2.3-2.1,0.5-3.7L4.2,11.2
		C1.7,9,1.4,5.6,3.5,3.5C5.6,1.4,9,1.7,11.2,4.2l13.7,15.7c1.6,1.7,3.2,1.5,3.7-0.5c0.7-2.9-0.4-7.5,0.2-10.5
		c0.7-4.7,7.7-4.2,8.1,0.6v22.9C36.9,33.7,36.8,35,35.9,35.9L35.9,35.9z"/>
</g>
</svg>
