<?xml version="1.0" encoding="utf-8"?>
<!-- Generator: Adobe Illustrator 26.3.1, SVG Export Plug-In . SVG Version: 6.00 Build 0)  -->
<svg version="1.1" id="Layer_1" xmlns="http://www.w3.org/2000/svg" xmlns:xlink="http://www.w3.org/1999/xlink" x="0px" y="0px"
	 viewBox="0 0 39 39" style="enable-background:new 0 0 39 39;" xml:space="preserve">
<style type="text/css">
	.st0{fill:#FFFFFF;}
</style>
<rect x="-263.6" y="-143" style="fill:none;" width="174" height="67.1"/>
<text transform="matrix(1 0 0 1 -263.5635 -133.3282)" style="font-family:'ExposureItalicTrial--30'; font-size:12px;">↖</text>
<g>
	<path class="st0" d="M36.9,19.5c0,1-0.6,1.7-1.3,2.4L23.3,34.2c-2.7,2.3-6.8-1.2-4.7-4.1c1.3-1.9,4.3-3.8,5.5-5.7
		c0.8-1.3,0.1-2.3-1.7-2.3L6.6,23.3c-2.6,0.1-4.5-1.5-4.5-3.8c0-2.2,1.9-3.9,4.5-3.8l15.8,1.1c1.8,0.1,2.5-0.9,1.7-2.3
		c-1.2-1.9-4.2-3.8-5.5-5.7c-2.1-2.9,1.9-6.4,4.7-4.1l12.3,12.3C36.3,17.8,36.9,18.5,36.9,19.5L36.9,19.5z"/>
</g>
</svg>
