<?xml version="1.0" encoding="UTF-8"?><svg id="Layer_2" xmlns="http://www.w3.org/2000/svg" viewBox="0 0 246.68 246.68"><defs><style>.cls-1{fill:none;}.cls-2{fill:#030155;}.cls-3{fill:#212300;}</style></defs><g id="Layer_1-2"><g><rect class="cls-2" x="82.23" y="61.67" width="20.56" height="20.56"/><rect class="cls-2" x="102.78" y="41.11" width="20.56" height="20.56"/><rect class="cls-3" x="82.23" y="41.11" width="20.56" height="20.56"/><rect class="cls-2" x="82.23" y="20.56" width="20.56" height="20.56"/><rect class="cls-2" x="123.34" y="61.67" width="20.56" height="20.56"/><rect class="cls-2" x="123.34" y="20.56" width="20.56" height="20.56"/><rect class="cls-2" y="61.67" width="20.56" height="20.56"/><rect class="cls-2" x="20.56" y="41.11" width="20.56" height="20.56"/><rect class="cls-3" y="41.11" width="20.56" height="20.56"/><rect class="cls-3" width="20.56" height="20.56"/><rect class="cls-3" x="41.11" width="20.56" height="20.56"/><rect class="cls-3" x="82.23" width="20.56" height="20.56"/><rect class="cls-3" x="123.34" width="20.56" height="20.56"/><rect class="cls-3" x="164.45" width="20.56" height="20.56"/><rect class="cls-3" x="205.57" width="20.56" height="20.56"/><rect class="cls-2" y="20.56" width="20.56" height="20.56"/><rect class="cls-2" x="41.11" y="61.67" width="20.56" height="20.56"/><rect class="cls-2" x="41.11" y="20.56" width="20.56" height="20.56"/><rect class="cls-2" x="164.45" y="61.67" width="20.56" height="20.56"/><rect class="cls-2" x="185.01" y="41.11" width="20.56" height="20.56"/><rect class="cls-3" x="164.45" y="41.11" width="20.56" height="20.56"/><rect class="cls-2" x="164.45" y="20.56" width="20.56" height="20.56"/><rect class="cls-2" x="205.57" y="61.67" width="20.56" height="20.56"/><rect class="cls-2" x="205.57" y="20.56" width="20.56" height="20.56"/><rect class="cls-2" x="82.23" y="143.9" width="20.56" height="20.56"/><rect class="cls-2" x="102.78" y="123.34" width="20.56" height="20.56"/><rect class="cls-3" x="82.23" y="123.34" width="20.56" height="20.56"/><rect class="cls-2" x="82.23" y="102.78" width="20.56" height="20.56"/><rect class="cls-2" x="123.34" y="143.9" width="20.56" height="20.56"/><rect class="cls-2" x="123.34" y="102.78" width="20.56" height="20.56"/><rect class="cls-2" y="143.9" width="20.56" height="20.56"/><rect class="cls-2" x="20.56" y="123.34" width="20.56" height="20.56"/><rect class="cls-3" y="123.34" width="20.56" height="20.56"/><rect class="cls-3" y="82.23" width="20.56" height="20.56"/><rect class="cls-3" x="41.11" y="82.23" width="20.56" height="20.56"/><rect class="cls-3" x="82.23" y="82.23" width="20.56" height="20.56"/><rect class="cls-3" x="123.34" y="82.23" width="20.56" height="20.56"/><rect class="cls-3" x="164.45" y="82.23" width="20.56" height="20.56"/><rect class="cls-3" x="205.57" y="82.23" width="20.56" height="20.56"/><rect class="cls-2" y="102.78" width="20.56" height="20.56"/><rect class="cls-2" x="41.11" y="143.9" width="20.56" height="20.56"/><rect class="cls-2" x="41.11" y="102.78" width="20.56" height="20.56"/><rect class="cls-2" x="164.45" y="143.9" width="20.56" height="20.56"/><rect class="cls-2" x="185.01" y="123.34" width="20.56" height="20.56"/><rect class="cls-3" x="164.45" y="123.34" width="20.56" height="20.56"/><rect class="cls-2" x="164.45" y="102.78" width="20.56" height="20.56"/><rect class="cls-2" x="205.57" y="143.9" width="20.56" height="20.56"/><rect class="cls-2" x="205.57" y="102.78" width="20.56" height="20.56"/><rect class="cls-2" x="82.23" y="226.13" width="20.56" height="20.56"/><rect class="cls-2" x="102.78" y="205.57" width="20.56" height="20.56"/><rect class="cls-3" x="82.23" y="205.57" width="20.56" height="20.56"/><rect class="cls-2" x="82.23" y="185.01" width="20.56" height="20.56"/><rect class="cls-2" x="123.34" y="226.13" width="20.56" height="20.56"/><rect class="cls-2" x="123.34" y="185.01" width="20.56" height="20.56"/><rect class="cls-2" y="226.13" width="20.56" height="20.56"/><rect class="cls-2" x="20.56" y="205.57" width="20.56" height="20.56"/><rect class="cls-3" y="205.57" width="20.56" height="20.56"/><rect class="cls-3" y="164.45" width="20.56" height="20.56"/><rect class="cls-3" x="41.11" y="164.45" width="20.56" height="20.56"/><rect class="cls-3" x="82.23" y="164.45" width="20.56" height="20.56"/><rect class="cls-3" x="123.34" y="164.45" width="20.56" height="20.56"/><rect class="cls-3" x="164.45" y="164.45" width="20.56" height="20.56"/><rect class="cls-3" x="205.57" y="164.45" width="20.56" height="20.56"/><rect class="cls-2" y="185.01" width="20.56" height="20.56"/><rect class="cls-2" x="41.11" y="226.13" width="20.56" height="20.56"/><rect class="cls-2" x="41.11" y="185.01" width="20.56" height="20.56"/><rect class="cls-2" x="164.45" y="226.13" width="20.56" height="20.56"/><rect class="cls-2" x="185.01" y="205.57" width="20.56" height="20.56"/><rect class="cls-3" x="164.45" y="205.57" width="20.56" height="20.56"/><rect class="cls-2" x="164.45" y="185.01" width="20.56" height="20.56"/><rect class="cls-2" x="205.57" y="226.13" width="20.56" height="20.56"/><rect class="cls-2" x="205.57" y="185.01" width="20.56" height="20.56"/><rect class="cls-1" x="226.13" width="20.56" height="20.56"/><rect class="cls-1" x="226.13" y="61.67" width="20.56" height="20.56"/><rect class="cls-1" x="226.13" y="20.56" width="20.56" height="20.56"/><rect class="cls-1" x="226.13" y="82.23" width="20.56" height="20.56"/><rect class="cls-1" x="226.13" y="143.9" width="20.56" height="20.56"/><rect class="cls-1" x="226.13" y="102.78" width="20.56" height="20.56"/><rect class="cls-1" x="226.13" y="164.45" width="20.56" height="20.56"/><rect class="cls-1" x="226.13" y="226.13" width="20.56" height="20.56"/><rect class="cls-1" x="226.13" y="185.01" width="20.56" height="20.56"/></g></g></svg>
